<svg width="10" height="10" viewBox="0 0 10 10" fill="none" xmlns="http://www.w3.org/2000/svg">
<path id="Vector" fill-rule="evenodd" clip-rule="evenodd" d="M3.39286 1.875V0.9375H6.60714V1.875H3.39286ZM2.32143 1.875V0.625C2.32143 0.45924 2.39668 0.300269 2.53064 0.183058C2.66459 0.065848 2.84627 0 3.03571 0L6.96429 0C7.15373 0 7.33541 0.065848 7.46936 0.183058C7.60332 0.300269 7.67857 0.45924 7.67857 0.625V1.875H9.46429C9.60637 1.875 9.74263 1.92439 9.84309 2.01229C9.94356 2.1002 10 2.21943 10 2.34375C10 2.46807 9.94356 2.5873 9.84309 2.67521C9.74263 2.76311 9.60637 2.8125 9.46429 2.8125H9.20357L8.67286 8.84562C8.64532 9.15965 8.48332 9.45302 8.21925 9.66704C7.95519 9.88107 7.60852 9.99998 7.24857 10H2.75143C2.39148 9.99998 2.04481 9.88107 1.78075 9.66704C1.51668 9.45302 1.35468 9.15965 1.32714 8.84562L0.796429 2.8125H0.535714C0.393634 2.8125 0.257373 2.76311 0.156907 2.67521C0.0564412 2.5873 0 2.46807 0 2.34375C0 2.21943 0.0564412 2.1002 0.156907 2.01229C0.257373 1.92439 0.393634 1.875 0.535714 1.875H2.32143ZM1.87143 2.8125H8.12857L7.60429 8.77375C7.59745 8.85223 7.55702 8.92557 7.49107 8.9791C7.42513 9.03263 7.33853 9.06241 7.24857 9.0625H2.75143C2.66148 9.06241 2.57487 9.03263 2.50893 8.9791C2.44298 8.92557 2.40255 8.85223 2.39571 8.77375L1.87143 2.8125Z" fill="black"/>
</svg>
