<svg width="30" height="33" viewBox="0 0 30 33" fill="none" xmlns="http://www.w3.org/2000/svg">
<path id="Vector" d="M28.6283 0.664062H2.05946C1.42051 0.664062 0.904297 1.23755 0.904297 1.94739V31.4639C0.904297 32.1737 1.42051 32.7472 2.05946 32.7472H28.6283C29.2673 32.7472 29.7835 32.1737 29.7835 31.4639V1.94739C29.7835 1.23755 29.2673 0.664062 28.6283 0.664062ZM27.4731 30.1805H20.8273V20.323H24.5816L25.1447 15.4825H20.8273V12.3904C20.8273 10.9868 21.1775 10.0323 22.986 10.0323H25.2928V5.70111C24.8921 5.64096 23.5239 5.50861 21.9283 5.50861C18.6 5.50861 16.3222 7.76646 16.3222 11.9092V15.4784H12.5606V20.319H16.3258V30.1805H3.21463V3.23071H27.4731V30.1805Z" fill="white"/>
</svg>
