<svg width="33" height="33" viewBox="0 0 33 33" fill="none" xmlns="http://www.w3.org/2000/svg">
<path id="Vector" d="M27.8907 5.33224C26.4226 3.84668 24.6739 2.66881 22.7467 1.86735C20.8194 1.06589 18.7521 0.656876 16.6654 0.664158C7.92204 0.664158 0.796076 7.80263 0.796076 16.5613C0.796076 19.3686 1.53269 22.0956 2.90984 24.5018L0.667969 32.7472L9.075 30.5335C11.3969 31.8007 14.0071 32.4745 16.6654 32.4745C25.4087 32.4745 32.5346 25.336 32.5346 16.5773C32.5346 12.3263 30.8853 8.332 27.8907 5.33224ZM16.6654 29.7795C14.2954 29.7795 11.9734 29.1378 9.93973 27.9347L9.45932 27.646L4.46314 28.9614L5.79226 24.0848L5.47199 23.5875C4.15528 21.4812 3.45613 19.0465 3.4543 16.5613C3.4543 9.27845 9.37926 3.34309 16.6493 3.34309C20.1723 3.34309 23.4871 4.72266 25.9691 7.22514C27.1981 8.45065 28.1721 9.90834 28.8346 11.5137C29.497 13.1191 29.8348 14.8402 29.8284 16.5773C29.8604 23.8602 23.9354 29.7795 16.6654 29.7795ZM23.9034 19.8979C23.5031 19.7054 21.5494 18.7429 21.1971 18.5986C20.8288 18.4702 20.5726 18.4061 20.3004 18.7911C20.0282 19.1921 19.2755 20.0904 19.0513 20.3471C18.8272 20.6198 18.587 20.6519 18.1866 20.4433C17.7863 20.2508 16.5052 19.8177 15 18.4702C13.815 17.4115 13.0303 16.1121 12.7901 15.7111C12.5659 15.3101 12.7581 15.1015 12.9663 14.893C13.1424 14.7165 13.3666 14.4278 13.5588 14.2032C13.7509 13.9786 13.831 13.8022 13.9591 13.5455C14.0872 13.2728 14.0231 13.0482 13.9271 12.8557C13.831 12.6632 13.0303 10.7061 12.71 9.90407C12.3898 9.13408 12.0535 9.23033 11.8133 9.21428H11.0447C10.7724 9.21428 10.3561 9.31053 9.98777 9.71157C9.63547 10.1126 8.61061 11.0751 8.61061 13.0322C8.61061 14.9892 10.0358 16.8821 10.228 17.1388C10.4201 17.4115 13.0303 21.4219 17.0016 23.1383C17.9464 23.5554 18.683 23.796 19.2595 23.9725C20.2043 24.2773 21.069 24.2291 21.7576 24.1329C22.5263 24.0206 24.1116 23.1704 24.4319 22.24C24.7681 21.3096 24.7681 20.5236 24.656 20.3471C24.5439 20.1706 24.3037 20.0904 23.9034 19.8979Z" fill="white"/>
</svg>
